<mxfile host="app.diagrams.net" agent="Mozilla/5.0 (Windows NT 10.0; Win64; x64) AppleWebKit/537.36 (KHTML, like Gecko) Chrome/140.0.0.0 Safari/537.36" version="28.2.3">
  <diagram name="Page-1" id="aWUcSpzAw-hujBrMD3yU">
    <mxGraphModel dx="786" dy="1620" grid="1" gridSize="10" guides="1" tooltips="1" connect="1" arrows="1" fold="1" page="1" pageScale="1" pageWidth="827" pageHeight="1169" math="0" shadow="0">
      <root>
        <mxCell id="0" />
        <mxCell id="1" parent="0" />
        <mxCell id="c0ev1SywWV7nspTIsW45-24" value="" style="edgeStyle=orthogonalEdgeStyle;rounded=0;orthogonalLoop=1;jettySize=auto;html=1;" edge="1" parent="1" source="c0ev1SywWV7nspTIsW45-3" target="c0ev1SywWV7nspTIsW45-4">
          <mxGeometry relative="1" as="geometry" />
        </mxCell>
        <mxCell id="c0ev1SywWV7nspTIsW45-3" value="Welcome page of swiggy" style="rounded=1;whiteSpace=wrap;html=1;" vertex="1" parent="1">
          <mxGeometry x="30" y="-430" width="120" height="60" as="geometry" />
        </mxCell>
        <mxCell id="c0ev1SywWV7nspTIsW45-4" value="Auto locate your location&amp;nbsp;" style="whiteSpace=wrap;html=1;aspect=fixed;" vertex="1" parent="1">
          <mxGeometry x="230" y="-440" width="80" height="80" as="geometry" />
        </mxCell>
        <mxCell id="c0ev1SywWV7nspTIsW45-5" value="Change location" style="rounded=0;whiteSpace=wrap;html=1;" vertex="1" parent="1">
          <mxGeometry x="360" y="-470" width="120" height="40" as="geometry" />
        </mxCell>
        <mxCell id="c0ev1SywWV7nspTIsW45-26" style="edgeStyle=orthogonalEdgeStyle;rounded=0;orthogonalLoop=1;jettySize=auto;html=1;" edge="1" parent="1" source="c0ev1SywWV7nspTIsW45-6" target="c0ev1SywWV7nspTIsW45-8">
          <mxGeometry relative="1" as="geometry" />
        </mxCell>
        <mxCell id="c0ev1SywWV7nspTIsW45-6" value="Confirm Location" style="rounded=0;whiteSpace=wrap;html=1;" vertex="1" parent="1">
          <mxGeometry x="360" y="-410" width="120" height="40" as="geometry" />
        </mxCell>
        <mxCell id="c0ev1SywWV7nspTIsW45-35" style="edgeStyle=orthogonalEdgeStyle;rounded=0;orthogonalLoop=1;jettySize=auto;html=1;entryX=1;entryY=0.25;entryDx=0;entryDy=0;" edge="1" parent="1" source="c0ev1SywWV7nspTIsW45-7" target="c0ev1SywWV7nspTIsW45-6">
          <mxGeometry relative="1" as="geometry" />
        </mxCell>
        <mxCell id="c0ev1SywWV7nspTIsW45-7" value="Try and Select Location" style="rounded=0;whiteSpace=wrap;html=1;" vertex="1" parent="1">
          <mxGeometry x="540" y="-480" width="100" height="40" as="geometry" />
        </mxCell>
        <mxCell id="c0ev1SywWV7nspTIsW45-36" value="" style="edgeStyle=orthogonalEdgeStyle;rounded=0;orthogonalLoop=1;jettySize=auto;html=1;" edge="1" parent="1" source="c0ev1SywWV7nspTIsW45-8" target="c0ev1SywWV7nspTIsW45-9">
          <mxGeometry relative="1" as="geometry" />
        </mxCell>
        <mxCell id="c0ev1SywWV7nspTIsW45-8" value="Swiggy Home Page" style="rounded=1;whiteSpace=wrap;html=1;" vertex="1" parent="1">
          <mxGeometry x="670" y="-420" width="120" height="60" as="geometry" />
        </mxCell>
        <mxCell id="c0ev1SywWV7nspTIsW45-37" value="" style="edgeStyle=orthogonalEdgeStyle;rounded=0;orthogonalLoop=1;jettySize=auto;html=1;" edge="1" parent="1" source="c0ev1SywWV7nspTIsW45-9" target="c0ev1SywWV7nspTIsW45-10">
          <mxGeometry relative="1" as="geometry" />
        </mxCell>
        <mxCell id="c0ev1SywWV7nspTIsW45-9" value="Life Of Restaurants" style="rounded=1;whiteSpace=wrap;html=1;" vertex="1" parent="1">
          <mxGeometry x="670" y="-320" width="120" height="40" as="geometry" />
        </mxCell>
        <mxCell id="c0ev1SywWV7nspTIsW45-38" value="" style="edgeStyle=orthogonalEdgeStyle;rounded=0;orthogonalLoop=1;jettySize=auto;html=1;" edge="1" parent="1" source="c0ev1SywWV7nspTIsW45-10" target="c0ev1SywWV7nspTIsW45-11">
          <mxGeometry relative="1" as="geometry" />
        </mxCell>
        <mxCell id="c0ev1SywWV7nspTIsW45-10" value="Select Restauratns" style="rhombus;whiteSpace=wrap;html=1;" vertex="1" parent="1">
          <mxGeometry x="690" y="-240" width="80" height="80" as="geometry" />
        </mxCell>
        <mxCell id="c0ev1SywWV7nspTIsW45-39" value="" style="edgeStyle=orthogonalEdgeStyle;rounded=0;orthogonalLoop=1;jettySize=auto;html=1;" edge="1" parent="1" source="c0ev1SywWV7nspTIsW45-11" target="c0ev1SywWV7nspTIsW45-16">
          <mxGeometry relative="1" as="geometry" />
        </mxCell>
        <mxCell id="c0ev1SywWV7nspTIsW45-11" value="Menu" style="rounded=1;whiteSpace=wrap;html=1;" vertex="1" parent="1">
          <mxGeometry x="680" y="-110" width="100" height="20" as="geometry" />
        </mxCell>
        <mxCell id="c0ev1SywWV7nspTIsW45-40" value="" style="edgeStyle=orthogonalEdgeStyle;rounded=0;orthogonalLoop=1;jettySize=auto;html=1;" edge="1" parent="1" source="c0ev1SywWV7nspTIsW45-16" target="c0ev1SywWV7nspTIsW45-20">
          <mxGeometry relative="1" as="geometry" />
        </mxCell>
        <mxCell id="c0ev1SywWV7nspTIsW45-45" value="" style="edgeStyle=orthogonalEdgeStyle;rounded=0;orthogonalLoop=1;jettySize=auto;html=1;" edge="1" parent="1" source="c0ev1SywWV7nspTIsW45-16" target="c0ev1SywWV7nspTIsW45-17">
          <mxGeometry relative="1" as="geometry" />
        </mxCell>
        <mxCell id="c0ev1SywWV7nspTIsW45-16" value="Add Items" style="rhombus;whiteSpace=wrap;html=1;" vertex="1" parent="1">
          <mxGeometry x="690" y="-40" width="80" height="80" as="geometry" />
        </mxCell>
        <mxCell id="c0ev1SywWV7nspTIsW45-46" style="edgeStyle=orthogonalEdgeStyle;rounded=0;orthogonalLoop=1;jettySize=auto;html=1;entryX=0;entryY=0.75;entryDx=0;entryDy=0;" edge="1" parent="1" source="c0ev1SywWV7nspTIsW45-17" target="c0ev1SywWV7nspTIsW45-9">
          <mxGeometry relative="1" as="geometry">
            <Array as="points">
              <mxPoint x="600" y="-290" />
            </Array>
          </mxGeometry>
        </mxCell>
        <mxCell id="c0ev1SywWV7nspTIsW45-17" value="Go Back" style="ellipse;whiteSpace=wrap;html=1;" vertex="1" parent="1">
          <mxGeometry x="545" y="-30" width="80" height="60" as="geometry" />
        </mxCell>
        <mxCell id="c0ev1SywWV7nspTIsW45-41" value="" style="edgeStyle=orthogonalEdgeStyle;rounded=0;orthogonalLoop=1;jettySize=auto;html=1;" edge="1" parent="1" source="c0ev1SywWV7nspTIsW45-20" target="c0ev1SywWV7nspTIsW45-21">
          <mxGeometry relative="1" as="geometry" />
        </mxCell>
        <mxCell id="c0ev1SywWV7nspTIsW45-20" value="Make Payment" style="rounded=1;whiteSpace=wrap;html=1;" vertex="1" parent="1">
          <mxGeometry x="670" y="110" width="120" height="60" as="geometry" />
        </mxCell>
        <mxCell id="c0ev1SywWV7nspTIsW45-42" value="" style="edgeStyle=orthogonalEdgeStyle;rounded=0;orthogonalLoop=1;jettySize=auto;html=1;" edge="1" parent="1" source="c0ev1SywWV7nspTIsW45-21" target="c0ev1SywWV7nspTIsW45-22">
          <mxGeometry relative="1" as="geometry" />
        </mxCell>
        <mxCell id="c0ev1SywWV7nspTIsW45-21" value="Select any Mode Of Payment" style="rounded=1;whiteSpace=wrap;html=1;" vertex="1" parent="1">
          <mxGeometry x="510" y="110" width="120" height="60" as="geometry" />
        </mxCell>
        <mxCell id="c0ev1SywWV7nspTIsW45-44" value="" style="edgeStyle=orthogonalEdgeStyle;rounded=0;orthogonalLoop=1;jettySize=auto;html=1;" edge="1" parent="1" source="c0ev1SywWV7nspTIsW45-22" target="c0ev1SywWV7nspTIsW45-23">
          <mxGeometry relative="1" as="geometry" />
        </mxCell>
        <mxCell id="c0ev1SywWV7nspTIsW45-47" style="edgeStyle=orthogonalEdgeStyle;rounded=0;orthogonalLoop=1;jettySize=auto;html=1;entryX=0;entryY=0.75;entryDx=0;entryDy=0;" edge="1" parent="1" source="c0ev1SywWV7nspTIsW45-22" target="c0ev1SywWV7nspTIsW45-8">
          <mxGeometry relative="1" as="geometry">
            <mxPoint x="400" y="-40" as="targetPoint" />
            <Array as="points">
              <mxPoint x="400" y="-360" />
              <mxPoint x="670" y="-360" />
            </Array>
          </mxGeometry>
        </mxCell>
        <mxCell id="c0ev1SywWV7nspTIsW45-22" value="Payment Done" style="rounded=0;whiteSpace=wrap;html=1;" vertex="1" parent="1">
          <mxGeometry x="330" y="110" width="120" height="60" as="geometry" />
        </mxCell>
        <mxCell id="c0ev1SywWV7nspTIsW45-23" value="Track Order" style="rounded=1;whiteSpace=wrap;html=1;" vertex="1" parent="1">
          <mxGeometry x="345" y="220" width="90" height="50" as="geometry" />
        </mxCell>
        <mxCell id="c0ev1SywWV7nspTIsW45-33" value="" style="endArrow=none;html=1;rounded=0;" edge="1" parent="1">
          <mxGeometry width="50" height="50" relative="1" as="geometry">
            <mxPoint x="540" y="-450" as="sourcePoint" />
            <mxPoint x="530" y="-450" as="targetPoint" />
            <Array as="points">
              <mxPoint x="480" y="-450" />
            </Array>
          </mxGeometry>
        </mxCell>
        <mxCell id="c0ev1SywWV7nspTIsW45-49" value="" style="endArrow=none;html=1;rounded=0;" edge="1" parent="1">
          <mxGeometry width="50" height="50" relative="1" as="geometry">
            <mxPoint x="310" y="-400" as="sourcePoint" />
            <mxPoint x="360" y="-450" as="targetPoint" />
          </mxGeometry>
        </mxCell>
        <mxCell id="c0ev1SywWV7nspTIsW45-51" value="" style="endArrow=none;html=1;rounded=0;entryX=0;entryY=0.75;entryDx=0;entryDy=0;exitX=1;exitY=0.5;exitDx=0;exitDy=0;" edge="1" parent="1" source="c0ev1SywWV7nspTIsW45-4" target="c0ev1SywWV7nspTIsW45-6">
          <mxGeometry width="50" height="50" relative="1" as="geometry">
            <mxPoint x="310" y="-360" as="sourcePoint" />
            <mxPoint x="360" y="-410" as="targetPoint" />
          </mxGeometry>
        </mxCell>
      </root>
    </mxGraphModel>
  </diagram>
</mxfile>
